<?xml version="1.0" encoding="UTF-8" standalone="no"?>
<svg xmlns="http://www.w3.org/2000/svg" contentScriptType="application/ecmascript" contentStyleType="text/css"
     height="521px" preserveAspectRatio="none" style="width:606px;height:521px;" version="1.1" viewBox="0 0 606 521"
     width="606px" zoomAndPan="magnify"><defs><filter height="300%" id="f1jum4kqwhjrti" width="300%" x="-1" y="-1"><feGaussianBlur result="blurOut" stdDeviation="2.0"/><feColorMatrix in="blurOut" result="blurOut2" type="matrix" values="0 0 0 0 0 0 0 0 0 0 0 0 0 0 0 0 0 0 .4 0"/><feOffset dx="4.0" dy="4.0" in="blurOut2" result="blurOut3"/><feBlend in="SourceGraphic" in2="blurOut3" mode="normal"/></filter></defs><g><text fill="#000000" font-family="sans-serif" font-size="18" lengthAdjust="spacingAndGlyphs" text-decoration="underline" textLength="211" x="191.5" y="18.6855">BUILDER's Class Diagram</text><text fill="#000000" font-family="sans-serif" font-size="18" lengthAdjust="spacingAndGlyphs" textLength="0" x="299.5" y="41.3262"/><!--MD5=[10791e4a4fa1a552707e3ba10d72d969]
cluster builder--><polygon fill="#FFFFFF" filter="url(#f1jum4kqwhjrti)" points="22,69.2813,78,69.2813,85,92.8906,560,92.8906,560,434.2813,22,434.2813,22,69.2813" style="stroke: #000000; stroke-width: 1.5;"/><line style="stroke: #000000; stroke-width: 1.5;" x1="22" x2="85" y1="92.8906" y2="92.8906"/><text fill="#000000" font-family="sans-serif" font-size="14" font-weight="bold" lengthAdjust="spacingAndGlyphs" textLength="50" x="26" y="85.8145">builder</text><!--MD5=[ae7a77a94310904800a9d264303795c6]
class builder.Person--><rect fill="#FEFECE" filter="url(#f1jum4kqwhjrti)" height="144.8516" id="builder.Person" style="stroke: #A80036; stroke-width: 1.5;" width="107" x="38.5" y="273.2813"/><ellipse cx="69.25" cy="289.2813" fill="#ADD1B2" rx="11" ry="11" style="stroke: #A80036; stroke-width: 1.0;"/><path d="M71.25,285.7813 Q71.4531,285.2813 71.6875,285.0313 Q71.9219,284.7813 72.1875,284.7813 Q72.6563,284.7813 72.9531,285.0625 Q73.25,285.3438 73.25,286 L73.25,287.5625 Q73.25,288.2188 72.9688,288.5 Q72.6875,288.7813 72.25,288.7813 Q71.8594,288.7813 71.6094,288.6094 Q71.3594,288.4375 71.25,287.9844 Q71.2031,287.6719 71.0313,287.5 Q70.7188,287.1719 70.1563,286.9844 Q69.5938,286.7813 69.0313,286.7813 Q68.3281,286.7813 67.7344,287.0625 Q67.1563,287.3438 66.7031,287.9688 Q66.25,288.5938 66.25,289.4531 L66.25,290.375 Q66.25,291.4063 67.0938,292.0938 Q67.9375,292.7813 69.4375,292.7813 Q70.3281,292.7813 70.9531,292.5781 Q71.3125,292.4688 71.7188,292.1094 Q71.9844,291.9063 72.125,291.8438 Q72.2656,291.7813 72.4375,291.7813 Q72.7656,291.7813 73,292.0469 Q73.25,292.2969 73.25,292.6563 Q73.25,293 72.9063,293.4063 Q72.4063,294 71.6094,294.3281 Q70.5625,294.7813 69.2813,294.7813 Q67.7813,294.7813 66.5781,294.1875 Q65.6094,293.7188 64.9219,292.7031 Q64.25,291.6875 64.25,290.4844 L64.25,289.3906 Q64.25,288.1406 64.8438,287.0469 Q65.4531,285.9531 66.5,285.375 Q67.5625,284.7813 68.75,284.7813 Q69.4688,284.7813 70.0938,285.0313 Q70.7188,285.2813 71.25,285.7813 Z "/><text fill="#000000" font-family="sans-serif" font-size="12" lengthAdjust="spacingAndGlyphs" textLength="40" x="86.75" y="294.1914">Person</text><line style="stroke: #A80036; stroke-width: 1.5;" x1="39.5" x2="144.5" y1="305.2813" y2="305.2813"/><ellipse cx="49.5" cy="316.2813" fill="none" rx="3" ry="3" style="stroke: #038048; stroke-width: 1.0;"/><text fill="#000000" font-family="sans-serif" font-size="11" lengthAdjust="spacingAndGlyphs" textLength="54" x="58.5" y="320.7002">city : String</text><ellipse cx="49.5" cy="330.1172" fill="none" rx="3" ry="3" style="stroke: #038048; stroke-width: 1.0;"/><text fill="#000000" font-family="sans-serif" font-size="11" lengthAdjust="spacingAndGlyphs" textLength="81" x="58.5" y="334.5361">company : String</text><ellipse cx="49.5" cy="343.9531" fill="none" rx="3" ry="3" style="stroke: #038048; stroke-width: 1.0;"/><text fill="#000000" font-family="sans-serif" font-size="11" lengthAdjust="spacingAndGlyphs" textLength="63" x="58.5" y="348.3721">name : String</text><ellipse cx="49.5" cy="357.7891" fill="none" rx="3" ry="3" style="stroke: #038048; stroke-width: 1.0;"/><text fill="#000000" font-family="sans-serif" font-size="11" lengthAdjust="spacingAndGlyphs" textLength="75" x="58.5" y="362.208">pincode : String</text><ellipse cx="49.5" cy="371.625" fill="none" rx="3" ry="3" style="stroke: #038048; stroke-width: 1.0;"/><text fill="#000000" font-family="sans-serif" font-size="11" lengthAdjust="spacingAndGlyphs" textLength="74" x="58.5" y="376.0439">position : String</text><ellipse cx="49.5" cy="385.4609" fill="none" rx="3" ry="3" style="stroke: #038048; stroke-width: 1.0;"/><text fill="#000000" font-family="sans-serif" font-size="11" lengthAdjust="spacingAndGlyphs" textLength="50" x="58.5" y="389.8799">salary : int</text><line style="stroke: #A80036; stroke-width: 1.5;" x1="39.5" x2="144.5" y1="396.2969" y2="396.2969"/><ellipse cx="49.5" cy="407.2969" fill="#84BE84" rx="3" ry="3" style="stroke: #038048; stroke-width: 1.0;"/><text fill="#000000" font-family="sans-serif" font-size="11" lengthAdjust="spacingAndGlyphs" textLength="45" x="58.5" y="411.7158">toString()</text><!--MD5=[b33fb33f91d91504d0d5a20b66a9d2d8]
class builder.PersonAddressBuilder--><rect fill="#FEFECE" filter="url(#f1jum4kqwhjrti)" height="103.3438" id="builder.PersonAddressBuilder" style="stroke: #A80036; stroke-width: 1.5;" width="157" x="180.5" y="294.2813"/><ellipse cx="195.5" cy="310.2813" fill="#ADD1B2" rx="11" ry="11" style="stroke: #A80036; stroke-width: 1.0;"/><path d="M197.5,306.7813 Q197.7031,306.2813 197.9375,306.0313 Q198.1719,305.7813 198.4375,305.7813 Q198.9063,305.7813 199.2031,306.0625 Q199.5,306.3438 199.5,307 L199.5,308.5625 Q199.5,309.2188 199.2188,309.5 Q198.9375,309.7813 198.5,309.7813 Q198.1094,309.7813 197.8594,309.6094 Q197.6094,309.4375 197.5,308.9844 Q197.4531,308.6719 197.2813,308.5 Q196.9688,308.1719 196.4063,307.9844 Q195.8438,307.7813 195.2813,307.7813 Q194.5781,307.7813 193.9844,308.0625 Q193.4063,308.3438 192.9531,308.9688 Q192.5,309.5938 192.5,310.4531 L192.5,311.375 Q192.5,312.4063 193.3438,313.0938 Q194.1875,313.7813 195.6875,313.7813 Q196.5781,313.7813 197.2031,313.5781 Q197.5625,313.4688 197.9688,313.1094 Q198.2344,312.9063 198.375,312.8438 Q198.5156,312.7813 198.6875,312.7813 Q199.0156,312.7813 199.25,313.0469 Q199.5,313.2969 199.5,313.6563 Q199.5,314 199.1563,314.4063 Q198.6563,315 197.8594,315.3281 Q196.8125,315.7813 195.5313,315.7813 Q194.0313,315.7813 192.8281,315.1875 Q191.8594,314.7188 191.1719,313.7031 Q190.5,312.6875 190.5,311.4844 L190.5,310.3906 Q190.5,309.1406 191.0938,308.0469 Q191.7031,306.9531 192.75,306.375 Q193.8125,305.7813 195,305.7813 Q195.7188,305.7813 196.3438,306.0313 Q196.9688,306.2813 197.5,306.7813 Z "/><text fill="#000000" font-family="sans-serif" font-size="12" lengthAdjust="spacingAndGlyphs" textLength="125" x="209.5" y="315.1914">PersonAddressBuilder</text><line style="stroke: #A80036; stroke-width: 1.5;" x1="181.5" x2="336.5" y1="326.2813" y2="326.2813"/><line style="stroke: #A80036; stroke-width: 1.5;" x1="181.5" x2="336.5" y1="334.2813" y2="334.2813"/><ellipse cx="191.5" cy="345.2813" fill="#84BE84" rx="3" ry="3" style="stroke: #038048; stroke-width: 1.0;"/><text fill="#000000" font-family="sans-serif" font-size="11" lengthAdjust="spacingAndGlyphs" textLength="117" x="200.5" y="349.7002">PersonAddressBuilder()</text><ellipse cx="191.5" cy="359.1172" fill="#84BE84" rx="3" ry="3" style="stroke: #038048; stroke-width: 1.0;"/><text fill="#000000" font-family="sans-serif" font-size="11" lengthAdjust="spacingAndGlyphs" textLength="55" x="200.5" y="363.5361">atPincode()</text><ellipse cx="191.5" cy="372.9531" fill="#84BE84" rx="3" ry="3" style="stroke: #038048; stroke-width: 1.0;"/><text fill="#000000" font-family="sans-serif" font-size="11" lengthAdjust="spacingAndGlyphs" textLength="34" x="200.5" y="377.3721">inCity()</text><ellipse cx="191.5" cy="386.7891" fill="#84BE84" rx="3" ry="3" style="stroke: #038048; stroke-width: 1.0;"/><text fill="#000000" font-family="sans-serif" font-size="11" lengthAdjust="spacingAndGlyphs" textLength="34" x="200.5" y="391.208">name()</text><!--MD5=[9430fccf41519f79fb6340b6f1cb44c7]
class builder.PersonBuilder--><rect fill="#FEFECE" filter="url(#f1jum4kqwhjrti)" height="89.5078" id="builder.PersonBuilder" style="stroke: #A80036; stroke-width: 1.5;" width="111" x="203.5" y="105.2813"/><ellipse cx="218.5" cy="121.2813" fill="#ADD1B2" rx="11" ry="11" style="stroke: #A80036; stroke-width: 1.0;"/><path d="M220.5,117.7813 Q220.7031,117.2813 220.9375,117.0313 Q221.1719,116.7813 221.4375,116.7813 Q221.9063,116.7813 222.2031,117.0625 Q222.5,117.3438 222.5,118 L222.5,119.5625 Q222.5,120.2188 222.2188,120.5 Q221.9375,120.7813 221.5,120.7813 Q221.1094,120.7813 220.8594,120.6094 Q220.6094,120.4375 220.5,119.9844 Q220.4531,119.6719 220.2813,119.5 Q219.9688,119.1719 219.4063,118.9844 Q218.8438,118.7813 218.2813,118.7813 Q217.5781,118.7813 216.9844,119.0625 Q216.4063,119.3438 215.9531,119.9688 Q215.5,120.5938 215.5,121.4531 L215.5,122.375 Q215.5,123.4063 216.3438,124.0938 Q217.1875,124.7813 218.6875,124.7813 Q219.5781,124.7813 220.2031,124.5781 Q220.5625,124.4688 220.9688,124.1094 Q221.2344,123.9063 221.375,123.8438 Q221.5156,123.7813 221.6875,123.7813 Q222.0156,123.7813 222.25,124.0469 Q222.5,124.2969 222.5,124.6563 Q222.5,125 222.1563,125.4063 Q221.6563,126 220.8594,126.3281 Q219.8125,126.7813 218.5313,126.7813 Q217.0313,126.7813 215.8281,126.1875 Q214.8594,125.7188 214.1719,124.7031 Q213.5,123.6875 213.5,122.4844 L213.5,121.3906 Q213.5,120.1406 214.0938,119.0469 Q214.7031,117.9531 215.75,117.375 Q216.8125,116.7813 218,116.7813 Q218.7188,116.7813 219.3438,117.0313 Q219.9688,117.2813 220.5,117.7813 Z "/><text fill="#000000" font-family="sans-serif" font-size="12" lengthAdjust="spacingAndGlyphs" textLength="79" x="232.5" y="126.1914">PersonBuilder</text><line style="stroke: #A80036; stroke-width: 1.5;" x1="204.5" x2="313.5" y1="137.2813" y2="137.2813"/><line style="stroke: #A80036; stroke-width: 1.5;" x1="204.5" x2="313.5" y1="145.2813" y2="145.2813"/><ellipse cx="214.5" cy="156.2813" fill="#84BE84" rx="3" ry="3" style="stroke: #038048; stroke-width: 1.0;"/><text fill="#000000" font-family="sans-serif" font-size="11" lengthAdjust="spacingAndGlyphs" textLength="30" x="223.5" y="160.7002">build()</text><ellipse cx="214.5" cy="170.1172" fill="#84BE84" rx="3" ry="3" style="stroke: #038048; stroke-width: 1.0;"/><text fill="#000000" font-family="sans-serif" font-size="11" lengthAdjust="spacingAndGlyphs" textLength="30" x="223.5" y="174.5361">lives()</text><ellipse cx="214.5" cy="183.9531" fill="#84BE84" rx="3" ry="3" style="stroke: #038048; stroke-width: 1.0;"/><text fill="#000000" font-family="sans-serif" font-size="11" lengthAdjust="spacingAndGlyphs" textLength="39" x="223.5" y="188.3721">works()</text><!--MD5=[5adf294f1f028ea80873f650fe5a2efa]
class builder.PersonDemo--><rect fill="#FEFECE" filter="url(#f1jum4kqwhjrti)" height="61.8359" id="builder.PersonDemo" style="stroke: #A80036; stroke-width: 1.5;" width="106" x="39" y="119.2813"/><ellipse cx="54" cy="135.2813" fill="#ADD1B2" rx="11" ry="11" style="stroke: #A80036; stroke-width: 1.0;"/><path d="M56,131.7813 Q56.2031,131.2813 56.4375,131.0313 Q56.6719,130.7813 56.9375,130.7813 Q57.4063,130.7813 57.7031,131.0625 Q58,131.3438 58,132 L58,133.5625 Q58,134.2188 57.7188,134.5 Q57.4375,134.7813 57,134.7813 Q56.6094,134.7813 56.3594,134.6094 Q56.1094,134.4375 56,133.9844 Q55.9531,133.6719 55.7813,133.5 Q55.4688,133.1719 54.9063,132.9844 Q54.3438,132.7813 53.7813,132.7813 Q53.0781,132.7813 52.4844,133.0625 Q51.9063,133.3438 51.4531,133.9688 Q51,134.5938 51,135.4531 L51,136.375 Q51,137.4063 51.8438,138.0938 Q52.6875,138.7813 54.1875,138.7813 Q55.0781,138.7813 55.7031,138.5781 Q56.0625,138.4688 56.4688,138.1094 Q56.7344,137.9063 56.875,137.8438 Q57.0156,137.7813 57.1875,137.7813 Q57.5156,137.7813 57.75,138.0469 Q58,138.2969 58,138.6563 Q58,139 57.6563,139.4063 Q57.1563,140 56.3594,140.3281 Q55.3125,140.7813 54.0313,140.7813 Q52.5313,140.7813 51.3281,140.1875 Q50.3594,139.7188 49.6719,138.7031 Q49,137.6875 49,136.4844 L49,135.3906 Q49,134.1406 49.5938,133.0469 Q50.2031,131.9531 51.25,131.375 Q52.3125,130.7813 53.5,130.7813 Q54.2188,130.7813 54.8438,131.0313 Q55.4688,131.2813 56,131.7813 Z "/><text fill="#000000" font-family="sans-serif" font-size="12" lengthAdjust="spacingAndGlyphs" textLength="74" x="68" y="140.1914">PersonDemo</text><line style="stroke: #A80036; stroke-width: 1.5;" x1="40" x2="144" y1="151.2813" y2="151.2813"/><line style="stroke: #A80036; stroke-width: 1.5;" x1="40" x2="144" y1="159.2813" y2="159.2813"/><ellipse cx="50" cy="170.2813" fill="#84BE84" rx="3" ry="3" style="stroke: #038048; stroke-width: 1.0;"/><text fill="#000000" font-family="sans-serif" font-size="11" lengthAdjust="spacingAndGlyphs" text-decoration="underline" textLength="30" x="59" y="174.7002">main()</text><!--MD5=[270a7438243dd3c145c497af8330cb4c]
class builder.PersonOccupancyBuilder--><rect fill="#FEFECE" filter="url(#f1jum4kqwhjrti)" height="103.3438" id="builder.PersonOccupancyBuilder" style="stroke: #A80036; stroke-width: 1.5;" width="171" x="372.5" y="294.2813"/><ellipse cx="387.5" cy="310.2813" fill="#ADD1B2" rx="11" ry="11" style="stroke: #A80036; stroke-width: 1.0;"/><path d="M389.5,306.7813 Q389.7031,306.2813 389.9375,306.0313 Q390.1719,305.7813 390.4375,305.7813 Q390.9063,305.7813 391.2031,306.0625 Q391.5,306.3438 391.5,307 L391.5,308.5625 Q391.5,309.2188 391.2188,309.5 Q390.9375,309.7813 390.5,309.7813 Q390.1094,309.7813 389.8594,309.6094 Q389.6094,309.4375 389.5,308.9844 Q389.4531,308.6719 389.2813,308.5 Q388.9688,308.1719 388.4063,307.9844 Q387.8438,307.7813 387.2813,307.7813 Q386.5781,307.7813 385.9844,308.0625 Q385.4063,308.3438 384.9531,308.9688 Q384.5,309.5938 384.5,310.4531 L384.5,311.375 Q384.5,312.4063 385.3438,313.0938 Q386.1875,313.7813 387.6875,313.7813 Q388.5781,313.7813 389.2031,313.5781 Q389.5625,313.4688 389.9688,313.1094 Q390.2344,312.9063 390.375,312.8438 Q390.5156,312.7813 390.6875,312.7813 Q391.0156,312.7813 391.25,313.0469 Q391.5,313.2969 391.5,313.6563 Q391.5,314 391.1563,314.4063 Q390.6563,315 389.8594,315.3281 Q388.8125,315.7813 387.5313,315.7813 Q386.0313,315.7813 384.8281,315.1875 Q383.8594,314.7188 383.1719,313.7031 Q382.5,312.6875 382.5,311.4844 L382.5,310.3906 Q382.5,309.1406 383.0938,308.0469 Q383.7031,306.9531 384.75,306.375 Q385.8125,305.7813 387,305.7813 Q387.7188,305.7813 388.3438,306.0313 Q388.9688,306.2813 389.5,306.7813 Z "/><text fill="#000000" font-family="sans-serif" font-size="12" lengthAdjust="spacingAndGlyphs" textLength="139" x="401.5" y="315.1914">PersonOccupancyBuilder</text><line style="stroke: #A80036; stroke-width: 1.5;" x1="373.5" x2="542.5" y1="326.2813" y2="326.2813"/><line style="stroke: #A80036; stroke-width: 1.5;" x1="373.5" x2="542.5" y1="334.2813" y2="334.2813"/><ellipse cx="383.5" cy="345.2813" fill="#84BE84" rx="3" ry="3" style="stroke: #038048; stroke-width: 1.0;"/><text fill="#000000" font-family="sans-serif" font-size="11" lengthAdjust="spacingAndGlyphs" textLength="131" x="392.5" y="349.7002">PersonOccupancyBuilder()</text><ellipse cx="383.5" cy="359.1172" fill="#84BE84" rx="3" ry="3" style="stroke: #038048; stroke-width: 1.0;"/><text fill="#000000" font-family="sans-serif" font-size="11" lengthAdjust="spacingAndGlyphs" textLength="28" x="392.5" y="363.5361">paid()</text><ellipse cx="383.5" cy="372.9531" fill="#84BE84" rx="3" ry="3" style="stroke: #038048; stroke-width: 1.0;"/><text fill="#000000" font-family="sans-serif" font-size="11" lengthAdjust="spacingAndGlyphs" textLength="53" x="392.5" y="377.3721">worksAs()</text><ellipse cx="383.5" cy="386.7891" fill="#84BE84" rx="3" ry="3" style="stroke: #038048; stroke-width: 1.0;"/><text fill="#000000" font-family="sans-serif" font-size="11" lengthAdjust="spacingAndGlyphs" textLength="50" x="392.5" y="391.208">worksAt()</text><!--MD5=[73483ed9ba265e92f306af4fd7e24064]
reverse link builder.PersonDemo to builder.Person--><path d="M92,201.6793 C92,223.4393 92,249.2953 92,273.0043 " fill="none" id="builder.PersonDemo&lt;-builder.Person" style="stroke: #A80036; stroke-width: 1.0;"/><polygon fill="none" points="85.0001,201.5153,92,181.5152,99.0001,201.5153,85.0001,201.5153" style="stroke: #A80036; stroke-width: 1.0;"/><!--MD5=[b7d085866d321a19571db33086ae024a]
reverse link builder.PersonBuilder to builder.PersonAddressBuilder--><path d="M259,215.6903 C259,241.2103 259,270.1223 259,294.1063 " fill="none" id="builder.PersonBuilder&lt;-builder.PersonAddressBuilder" style="stroke: #A80036; stroke-width: 1.0;"/><polygon fill="none" points="252,215.6743,259,195.6743,266,215.6743,252,215.6743" style="stroke: #A80036; stroke-width: 1.0;"/><!--MD5=[ccf382a8be394101c0bacc9196c6e9db]
reverse link builder.PersonBuilder to builder.Person--><path d="M212.078,205.6493 C191.412,229.5943 167.02,257.8563 145.638,282.6323 " fill="none" id="builder.PersonBuilder&lt;-builder.Person" style="stroke: #A80036; stroke-width: 1.0;"/><polygon fill="#FFFFFF" points="220.687,195.6743,213.7389,197.6039,212.8477,204.7597,219.7958,202.8301,220.687,195.6743" style="stroke: #A80036; stroke-width: 1.0;"/><text fill="#000000" font-family="sans-serif" font-size="13" lengthAdjust="spacingAndGlyphs" textLength="39" x="191" y="239.7764">person</text><!--MD5=[1989f2d0dc2df7625e61a74339aa97fd]
reverse link builder.PersonBuilder to builder.PersonOccupancyBuilder--><path d="M319.043,209.6653 C346.72,236.5763 379.256,268.2133 405.885,294.1063 " fill="none" id="builder.PersonBuilder&lt;-builder.PersonOccupancyBuilder" style="stroke: #A80036; stroke-width: 1.0;"/><polygon fill="none" points="314.114,214.6353,304.655,195.6743,323.873,204.5983,314.114,214.6353" style="stroke: #A80036; stroke-width: 1.0;"/><text fill="#888888" font-family="sans-serif" font-size="10" lengthAdjust="spacingAndGlyphs" textLength="0" x="594" y="470.6621"/><text fill="#888888" font-family="sans-serif" font-size="10" lengthAdjust="spacingAndGlyphs" textLength="0" x="594" y="483.2402"/><text fill="#888888" font-family="sans-serif" font-size="10" lengthAdjust="spacingAndGlyphs" textLength="392" x="202" y="495.8184">PlantUML diagram generated by SketchIt! (https://bitbucket.org/pmesmeur/sketch.it)</text><text fill="#888888" font-family="sans-serif" font-size="10" lengthAdjust="spacingAndGlyphs" textLength="394" x="200" y="508.3965">For more information about this tool, please contact philippe.mesmeur@gmail.com</text><!--MD5=[d59a38da35c01bba895dee9204451d88]
@startuml

title __BUILDER's Class Diagram__\n

  namespace builder {
    class builder.Person {
        + city : String
        + company : String
        + name : String
        + pincode : String
        + position : String
        + salary : int
        + toString()
    }
  }
  

  namespace builder {
    class builder.PersonAddressBuilder {
        + PersonAddressBuilder()
        + atPincode()
        + inCity()
        + name()
    }
  }
  

  namespace builder {
    class builder.PersonBuilder {
        + build()
        + lives()
        + works()
    }
  }
  

  namespace builder {
    class builder.PersonDemo {
        {static} + main()
    }
  }
  

  namespace builder {
    class builder.PersonOccupancyBuilder {
        + PersonOccupancyBuilder()
        + paid()
        + worksAs()
        + worksAt()
    }
  }
  

  builder.Person -up-|> builder.PersonDemo
  builder.PersonAddressBuilder -up-|> builder.PersonBuilder
  builder.PersonBuilder o- - builder.Person : person
  builder.PersonOccupancyBuilder -up-|> builder.PersonBuilder


right footer


PlantUML diagram generated by SketchIt! (https://bitbucket.org/pmesmeur/sketch.it)
For more information about this tool, please contact philippe.mesmeur@gmail.com
endfooter

@enduml

PlantUML version 1.2019.10(Sat Sep 14 02:23:03 IST 2019)
(GPL source distribution)
Java Runtime: OpenJDK Runtime Environment
JVM: OpenJDK 64-Bit Server VM
Java Version: 11.0.3+12-b304.56
Operating System: Windows 10
Default Encoding: Cp1252
Language: en
Country: US
--></g></svg>